<svg xmlns="http://www.w3.org/2000/svg" width="800" height="600" viewBox="0 0 800 600">
  <defs>
    <linearGradient id="bg" x1="0" y1="0" x2="1" y2="1">
      <stop offset="0%" stop-color="#e0f2fe"/>
      <stop offset="100%" stop-color="#bfdbfe"/>
    </linearGradient>
    <linearGradient id="card" x1="0" y1="0" x2="1" y2="1">
      <stop offset="0%" stop-color="#ffffff"/>
      <stop offset="100%" stop-color="#f8fafc"/>
    </linearGradient>
  </defs>
  <rect width="800" height="600" fill="url(#bg)"/>
  <rect x="140" y="110" width="520" height="380" rx="32" fill="url(#card)" stroke="#e2e8f0" stroke-width="4"/>
  <rect x="140" y="110" width="520" height="70" rx="32" fill="#0ea5e9"/>
  <circle cx="210" cy="145" r="10" fill="#ffffff"/>
  <circle cx="250" cy="145" r="10" fill="#ffffff"/>
  <rect x="190" y="210" width="180" height="28" rx="14" fill="#dbeafe"/>
  <rect x="190" y="260" width="420" height="22" rx="11" fill="#e2e8f0"/>
  <rect x="190" y="300" width="420" height="22" rx="11" fill="#e2e8f0"/>
  <rect x="190" y="340" width="300" height="22" rx="11" fill="#e2e8f0"/>
  <rect x="190" y="380" width="200" height="22" rx="11" fill="#bae6fd"/>
  <rect x="420" y="210" width="190" height="120" rx="18" fill="#ffffff" stroke="#bae6fd" stroke-width="4"/>
  <rect x="445" y="235" width="140" height="20" rx="10" fill="#0ea5e9"/>
  <rect x="445" y="270" width="120" height="16" rx="8" fill="#e2e8f0"/>
  <rect x="445" y="300" width="100" height="16" rx="8" fill="#e2e8f0"/>
</svg>
